<?xml version="1.0" encoding="iso-8859-1"?>
<!-- Uploaded to: SVG Repo, www.svgrepo.com, Generator: SVG Repo Mixer Tools -->
<svg height="800px" width="800px" version="1.1" id="Layer_1" xmlns="http://www.w3.org/2000/svg" xmlns:xlink="http://www.w3.org/1999/xlink" 
	 viewBox="0 0 390.723 390.723" xml:space="preserve">
<g>
	<path style="fill:#56ACE0;" d="M367.968,32.032v102.4h-94.255v-102.4h36.331v20.04c0,5.947,4.913,10.861,10.861,10.861
		c5.947,0,10.861-4.848,10.861-10.861v-20.04H367.968z"/>
	<path style="fill:#56ACE0;" d="M86.174,325.721c0-17.907-14.61-32.517-32.517-32.517s-32.517,14.675-32.517,32.517
		s14.61,32.517,32.517,32.517S86.174,343.628,86.174,325.721z"/>
	<path style="fill:#56ACE0;" d="M331.119,293.786c-17.907,0-32.517,14.61-32.517,32.517s14.61,32.517,32.517,32.517
		c17.907,0,32.517-14.61,32.517-32.517C363.636,307.879,349.026,293.786,331.119,293.786z"/>
</g>
<g>
	<path style="fill:#FFFFFF;" d="M194.004,179.426h174.545v-23.273H226.004C211.394,156.089,198.335,165.851,194.004,179.426z"/>
	<path style="fill:#FFFFFF;" d="M47.127,132.299v23.855c7.046-2.715,10.861-7.564,10.861-11.895S54.174,134.432,47.127,132.299z"/>
</g>
<path style="fill:#FFC10D;" d="M315.992,201.083h-97.034c18.941,17.907,28.703,41.762,33.616,65.034
	c17.907-23.855,46.61-39.046,78.61-39.046c8.145,0,16.291,1.099,24.372,3.232C342.497,205.996,324.073,201.665,315.992,201.083z"/>
<g>
	<path style="fill:#194F82;" d="M54.174,272.065C24.372,272.065,0,296.436,0,326.238s24.372,54.174,54.174,54.174
		s54.174-24.372,54.174-54.174C107.83,295.919,83.976,272.065,54.174,272.065z M21.657,325.721c0-17.907,14.61-32.517,32.517-32.517
		s32.517,14.61,32.517,32.517s-14.61,32.517-32.517,32.517S21.657,343.628,21.657,325.721z"/>
	<path style="fill:#194F82;" d="M331.119,272.065c-29.802,0-54.174,24.372-54.174,54.174s24.372,54.174,54.174,54.174
		s54.174-24.372,54.174-54.174C385.358,295.919,360.921,272.065,331.119,272.065z M331.119,358.238
		c-17.907,0-32.517-14.61-32.517-32.517s14.61-32.517,32.517-32.517c17.907,0,32.517,14.61,32.517,32.517
		S349.026,358.238,331.119,358.238z"/>
	<path style="fill:#194F82;" d="M379.345,10.311H262.853c-5.947,0-10.861,4.848-10.861,10.861v113.261h-25.988
		c-30.901,0-55.855,24.954-55.855,55.855l0,0c0,4.331,2.715,8.663,7.046,10.279c54.174,20.04,57.988,80.743,56.889,108.929
		c-0.517,1.616-0.517,3.814-1.099,5.43h-81.261c-4.848-44.994-40.081-80.743-84.558-86.691c4.848-21.657,14.093-68.267,14.61-114.36
		l28.186-15.192c5.43-2.715,7.046-9.244,4.331-14.61c-2.715-5.43-9.244-7.046-14.61-4.331L66.069,98.166
		c-4.331,2.198-5.947,6.529-5.43,10.861c0,0.517,0,3.814,0,4.848c-7.046-3.814-15.192-5.43-23.855-5.43
		c-5.947,0-10.861,4.848-10.861,10.861v49.325c0,5.947,4.848,10.861,10.861,10.861c6.529,0,12.994-1.099,18.424-3.232
		c-3.232,22.756-7.564,41.762-9.762,51.459c-14.093,1.099-27.669,5.43-39.564,12.477c-5.43,2.715-7.046,9.762-4.331,14.61
		c2.715,5.43,9.762,7.046,14.61,4.331c11.378-6.529,24.372-9.762,37.947-9.762c42.279,0,76.929,34.715,76.929,76.929
		c0,5.947,4.848,10.861,10.861,10.861h101.883c5.947,0,10.861-4.848,10.861-10.861c0-42.279,34.715-76.929,76.929-76.929
		c12.994,0,26.57,3.232,37.947,9.762c9.244,4.848,18.424-3.814,15.709-12.477c-5.43-20.622-14.093-34.715-23.273-44.994h17.907
		c5.947,0,10.861-4.848,10.861-10.861V21.172C390.206,15.224,385.358,10.311,379.345,10.311z M47.127,156.089v-23.855
		c7.046,2.715,10.861,7.564,10.861,11.895C57.988,148.525,54.174,153.374,47.127,156.089z M331.119,227.135
		c-32,0-60.703,15.192-78.61,39.046c-4.848-23.273-14.61-47.127-33.616-65.034h97.099c8.145,0.517,26.57,4.848,39.564,29.285
		C347.927,228.17,339.265,227.135,331.119,227.135z M368.549,179.426H194.004c4.331-13.576,17.325-23.273,32.517-23.273h142.545
		v23.273H368.549z M368.549,134.432h-94.836v-102.4h36.331v20.04c0,5.947,4.848,10.861,10.861,10.861
		c5.947,0,10.861-4.848,10.861-10.861v-20.04h36.331v102.4L368.549,134.432L368.549,134.432z"/>
	<circle style="fill:#194F82;" cx="54.174" cy="325.721" r="10.861"/>
	<circle style="fill:#194F82;" cx="331.119" cy="325.721" r="10.861"/>
</g>
</svg>